<svg data-name="Layer 2" viewBox="0 0 35 35" xmlns="http://www.w3.org/2000/svg"><path d="M17.5 34.75A17.25 17.25 0 1 1 34.75 17.5 17.27 17.27 0 0 1 17.5 34.75Zm0-32A14.75 14.75 0 1 0 32.25 17.5 14.77 14.77 0 0 0 17.5 2.75Z" fill="#ffffff" class="fill-000000"></path><path d="M9.51 17.17a22.17 22.17 0 0 1-8.17-1.55 1.25 1.25 0 1 1 .91-2.32 20.1 20.1 0 0 0 17-1.17 19.81 19.81 0 0 0 7.52-7.46 1.25 1.25 0 0 1 1.7-.47 1.26 1.26 0 0 1 .47 1.71 22.37 22.37 0 0 1-8.46 8.4 22.42 22.42 0 0 1-10.97 2.86ZM7.6 31.32a1.32 1.32 0 0 1-.54-.12 1.25 1.25 0 0 1-.58-1.67 22.38 22.38 0 0 1 27.34-11.47 1.25 1.25 0 1 1-.82 2.36A19.87 19.87 0 0 0 8.73 30.61a1.25 1.25 0 0 1-1.13.71Z" fill="#ffffff" class="fill-000000"></path><path d="M22.81 33.84h-.3a1.25 1.25 0 0 1-.92-1.51 24.78 24.78 0 0 0 .66-5.72A24.87 24.87 0 0 0 21.06 19a24.16 24.16 0 0 0-2.29-5.1 25 25 0 0 0-9.64-9.28 1.25 1.25 0 1 1 1.19-2.2 27.51 27.51 0 0 1 10.6 10.16 26.61 26.61 0 0 1 2.53 5.62 27.58 27.58 0 0 1 1.3 8.38 27 27 0 0 1-.73 6.3 1.26 1.26 0 0 1-1.21.96Z" fill="#ffffff" class="fill-000000"></path></svg>