<svg xmlns="http://www.w3.org/2000/svg" version="1.1" xmlns:xlink="http://www.w3.org/1999/xlink" width="512" height="512" x="0" y="0" viewBox="0 0 512.001 512.001" style="enable-background:new 0 0 512 512" xml:space="preserve" class=""><g><path d="M468.502 116.001h-11.814a10.001 10.001 0 0 0-1.063-1.561l-6.106-7.191c-23.282-27.418-36.104-61.955-36.104-97.248 0-5.522-4.477-10-10-10h-21.618c-5.523 0-10 4.478-10 10 0 35.294-12.822 69.83-36.104 97.248l-6.106 7.191a10 10 0 0 0-1.431 10.718l23.589 50.314c-9.727 4.391-16.517 14.176-16.517 25.523v147.006H288.99V157.472h5.904c5.523 0 10-4.478 10-10a9.99 9.99 0 0 0-4.459-8.323c5.428-10.172 8.349-21.953 8.349-34.234 0-16.911-5.515-32.892-15.529-44.997l-1.045-1.264c-11.995-14.5-19.597-27.762-20.432-49.045a9.999 9.999 0 0 0-17.855-5.787l-37.735 48.015c-10.925 13.9-16.962 30.59-17.458 48.263-.383 13.643 2.577 26.88 8.599 38.878-2.842 1.764-4.742 4.903-4.742 8.494 0 5.522 4.477 10 10 10h5.904v190.53h-41.724v-29c0-5.522-4.477-10-10-10s-10 4.478-10 10v29h-40.408v-94.048c0-5.522-4.477-10-10-10s-10 4.478-10 10v94.048H84.002V97.628h40.864v114.355c0 5.522 4.477 10 10 10s10-4.478 10-10V97.628h11.9v140.04c0 5.522 4.477 10 10 10s10-4.478 10-10V87.628a9.927 9.927 0 0 0-1.423-5.121l.007-.008-46.382-77.627a10 10 0 0 0-17.168 0L65.417 82.499l.008.006a9.938 9.938 0 0 0-1.424 5.123v28.373h-20.5c-16.542 0-30 13.458-30 30v264c0 16.542 13.458 30 30 30h142.5v52h-17.5c-5.523 0-10 4.478-10 10s4.477 10 10 10h175c5.523 0 10-4.478 10-10s-4.477-10-10-10h-17.5v-52h142.5c16.542 0 30-13.458 30-30v-264c.001-16.542-13.457-30-29.999-30zM120.383 29.497l7.52 12.586h-15.04l7.52-12.586zm-19.47 32.586h38.94l9.288 15.545H91.625l9.288-15.545zm291.692 52.884a6.202 6.202 0 0 1 6.196 6.196 6.202 6.202 0 0 1-6.196 6.195 6.202 6.202 0 0 1-6.196-6.195 6.202 6.202 0 0 1 6.196-6.196zm-43.614 7.52 1.946-2.293c14.07-16.569 24.756-35.45 31.668-55.542v32.303c-9.497 3.938-16.196 13.304-16.196 24.208 0 14.444 11.751 26.195 26.196 26.195 14.445 0 26.196-11.751 26.196-26.195 0-10.904-6.699-20.27-16.196-24.208V64.652c6.912 20.093 17.598 38.974 31.667 55.543l1.947 2.293-23.683 50.514h-39.862l-23.683-50.515zm57.107 139.23c-5.523 0-10 4.478-10 10v76.284h-40.872V225.668h72.764v122.333h-11.892v-76.284c0-5.522-4.477-10-10-10zm-50.871-56.048v-4.673c-.001-4.408 3.585-7.994 7.993-7.994H419.996c4.408 0 7.995 3.586 7.995 7.994v4.673h-72.764zM231.91 64.195l23.618-30.052c4.234 14.323 11.735 25.733 21.269 37.259l1.045 1.264c14.71 17.782 14.71 46.716-.001 64.499-.084.103-.17.204-.256.307h-47.977a.002.002 0 0 0-.002-.002c-15.458-22.432-14.552-51.827 2.304-73.275zm6.579 111.288v-18.011h30.499v18.011h-30.499zm30.499 20v152.519h-30.499V195.483h30.499zM33.502 146.001c0-5.514 4.485-10 10-10h20.5v212h-30.5v-202zm272.5 346h-100v-52h100v52zm172.5-82c0 5.514-4.486 10-10 10h-425c-5.514 0-10-4.486-10-10v-6h69.382c5.523 0 10-4.478 10-10s-4.477-10-10-10H33.502v-16h445v42zm0-62h-30.511V200.995c0-10.706-6.043-20.022-14.896-24.73l19.072-40.678c.899.266 1.85.414 2.835.414h13.5c5.514 0 10 4.486 10 10v202z" fill="#ffffff" opacity="1" data-original="#000000" class=""></path><path d="M173.831 265.731c-1.86-1.86-4.44-2.93-7.07-2.93s-5.2 1.07-7.07 2.93a10.076 10.076 0 0 0-2.93 7.07c0 2.64 1.07 5.21 2.93 7.07a10.08 10.08 0 0 0 7.07 2.93c2.64 0 5.22-1.07 7.07-2.93 1.87-1.86 2.93-4.44 2.93-7.07s-1.06-5.21-2.93-7.07zM144.951 386.931c-1.86-1.861-4.44-2.93-7.07-2.93s-5.21 1.069-7.07 2.93c-1.86 1.86-2.93 4.44-2.93 7.07s1.07 5.21 2.93 7.069a10.077 10.077 0 0 0 7.07 2.931c2.64 0 5.21-1.07 7.07-2.931 1.86-1.859 2.93-4.439 2.93-7.069s-1.07-5.209-2.93-7.07z" fill="#ffffff" opacity="1" data-original="#000000" class=""></path></g></svg>