<svg data-name="Google alt" viewBox="0 0 420 419.997" xmlns="http://www.w3.org/2000/svg"><path d="M342.818 100.279a24.3 24.3 0 1 1-24.295-24.295 24.3 24.3 0 0 1 24.295 24.295ZM420 209.999l-.005.306-1.38 88.105a121.58 121.58 0 0 1-120.2 120.2L210 419.999l-.306-.006-88.105-1.376a121.586 121.586 0 0 1-120.206-120.2L0 209.999l.006-.306 1.376-88.108a121.59 121.59 0 0 1 120.206-120.2L210-.001l.306.006 88.105 1.376a121.584 121.584 0 0 1 120.2 120.2Zm-39.112 0-1.374-87.8A82.654 82.654 0 0 0 297.8 40.484L210 39.113l-87.8 1.371a82.658 82.658 0 0 0-81.716 81.715l-1.371 87.8 1.371 87.8a82.655 82.655 0 0 0 81.716 81.715l87.8 1.371 87.8-1.371a82.651 82.651 0 0 0 81.714-81.715Zm-63.048 0A107.841 107.841 0 1 1 210 102.158a107.962 107.962 0 0 1 107.84 107.841Zm-39.107 0A68.734 68.734 0 1 0 210 278.733a68.812 68.812 0 0 0 68.732-68.734Z" fill="#ffffff" class="fill-000000"></path></svg>