<svg id="Layer_1" data-name="Layer 1" xmlns="http://www.w3.org/2000/svg" viewBox="0 0 1000.46 1000"><defs><style>.cls-1{fill:#fff;}</style></defs><path class="cls-1" d="M632.28,133.29H933.55L867.07,66.81V368.08a68.44,68.44,0,0,0,19.5,47c11.52,11.53,30.47,20.17,47,19.5,17.18-.77,35-6.42,47-19.5s19.5-29,19.5-47V66.81C1000,30.91,969.56.33,933.55.33H632.28a68.5,68.5,0,0,0-47,19.5c-11.52,11.53-20.16,30.47-19.5,47,.78,17.18,6.43,35,19.5,47s28.92,19.5,47,19.5Z" transform="translate(0.21)"/><path class="cls-1" d="M480.6,613.73,530.34,564,649.79,444.54,794.27,300.05,919.15,175.18c20.27-20.28,40.66-40.33,60.72-60.72l.88-.89a68.44,68.44,0,0,0,19.5-47c0-16.29-7.2-35.79-19.5-47C968.12,8,951.5-.66,933.77.11s-34.24,6.76-47,19.5L837,69.36Q777,129.2,717.49,188.81L573,333.29,448.13,458.16c-20.28,20.28-40.66,40.34-60.72,60.72l-.89.89a68.5,68.5,0,0,0-19.5,47c0,16.29,7.21,35.79,19.5,47,12.75,11.63,29.37,20.28,47.1,19.5s34.23-6.76,47-19.5Z" transform="translate(0.21)"/><path class="cls-1" d="M867.18,612V830.57c0,12.19.89,24.82-.77,36.89.77-5.87,1.55-11.74,2.32-17.72a84.89,84.89,0,0,1-5.09,18.61c2.21-5.32,4.43-10.64,6.64-15.84a84.85,84.85,0,0,1-10.19,17.61c3.43-4.43,7-9,10.42-13.4A87.86,87.86,0,0,1,856.21,871l13.41-10.42A82,82,0,0,1,852,870.79c5.32-2.22,10.64-4.43,15.85-6.65a82.83,82.83,0,0,1-18.62,5.1L867,866.91c-9.09,1.22-18.5.78-27.7.78h-611c-28.14,0-56.29.22-84.32,0a78,78,0,0,1-11.3-.78l17.73,2.33a84.45,84.45,0,0,1-18.62-5.1c5.32,2.22,10.64,4.43,15.85,6.65A84.71,84.71,0,0,1,130,860.59c4.43,3.44,9,7,13.41,10.42a87.47,87.47,0,0,1-14.3-14.29l10.42,13.4a82.14,82.14,0,0,1-10.2-17.61c2.22,5.31,4.44,10.63,6.65,15.84a82.72,82.72,0,0,1-5.09-18.61c.77,5.87,1.55,11.74,2.32,17.72-1.22-9.08-.77-18.5-.77-27.7v-611c0-28.14-.22-56.28,0-84.32a78.13,78.13,0,0,1,.77-11.3c-.77,5.88-1.55,11.75-2.32,17.73A84.19,84.19,0,0,1,136,132.3c-2.21,5.32-4.43,10.63-6.65,15.84a85,85,0,0,1,10.2-17.62c-3.44,4.44-7,9-10.42,13.41a87.08,87.08,0,0,1,14.3-14.29c-4.44,3.43-9,7-13.41,10.41a81.93,81.93,0,0,1,17.62-10.19c-5.32,2.22-10.64,4.43-15.85,6.65a82.83,82.83,0,0,1,18.62-5.1l-17.73,2.33c10.19-1.33,20.83-.78,31.13-.78H388.19a68.46,68.46,0,0,0,47-19.5c11.52-11.52,20.16-30.47,19.5-47-.78-17.17-6.43-35-19.5-47s-29-19.5-47-19.5H159.83C140.43,0,120.71,0,102,6.09,88.91,10.3,75.39,16,64.2,24.15,57.11,29.36,49.47,34.9,43,41.11c-6.87,6.53-12.41,14.51-18.06,22C8.47,85.32.6,114.57-.06,141.94c-.33,13.85,0,27.7,0,41.55V821.7c0,22.5-.44,43.77,3.54,66A74.13,74.13,0,0,0,7,900.59a207.36,207.36,0,0,0,11.52,26.48A136.92,136.92,0,0,0,43,958.88c19.39,18.72,45.21,33.68,72,38a230.57,230.57,0,0,0,36.79,3.1H846.68c5,0,10.09.11,15.07-.22,14-1,28.37-2.77,41.55-8,8.42-3.32,17.18-6.65,25-11.19,8.42-4.87,16.29-11.3,23.6-17.39,10.42-8.65,18.95-20,26.37-31.14s12.75-24.26,16.4-37.12c5.32-18.72,5.32-37.45,5.32-56.51V611.51a68.46,68.46,0,0,0-19.5-47C969,553,950.06,544.37,933.55,545c-17.17.78-35,6.43-47,19.5-12,13.41-19.39,29.37-19.39,47.43Z" transform="translate(0.21)"/></svg>