<svg xmlns="http://www.w3.org/2000/svg" version="1.1" xmlns:xlink="http://www.w3.org/1999/xlink" width="512" height="512" x="0" y="0" viewBox="0 0 512.002 512.002" style="enable-background:new 0 0 512 512" xml:space="preserve" class=""><g><path d="M502.002 10.249H10c-5.523 0-10 4.478-10 10v102.859c0 5.522 4.477 10 10 10h492.002c5.523 0 10-4.478 10-10V20.249c0-5.522-4.477-10-10-10zm-10 102.859H20V30.249h472.002v82.859z" fill="#ffffff" opacity="1" data-original="#000000" class=""></path><path d="m469.41 90.394-8.167-8.167a31.795 31.795 0 0 0 3.416-14.388c0-8.533-3.323-16.557-9.357-22.591-12.456-12.455-32.723-12.456-45.18 0-6.034 6.034-9.357 14.058-9.357 22.591 0 8.533 3.324 16.557 9.357 22.59 6.035 6.034 14.058 9.357 22.591 9.357 5.083 0 9.98-1.188 14.388-3.416l8.167 8.167c1.953 1.952 4.512 2.929 7.071 2.929s5.119-.977 7.071-2.929c3.905-3.905 3.905-10.237 0-14.143zm-28.249-14.108a11.866 11.866 0 0 1-8.448 3.5 11.867 11.867 0 0 1-8.448-3.5c-2.256-2.257-3.5-5.256-3.5-8.447s1.244-6.192 3.5-8.448a11.91 11.91 0 0 1 8.448-3.493 11.91 11.91 0 0 1 8.448 3.493c2.256 2.257 3.5 5.257 3.5 8.448s-1.243 6.191-3.5 8.447zM358.341 87.831a10.2 10.2 0 0 0-1.49-3.6c-.36-.54-.78-1.06-1.24-1.52a9.57 9.57 0 0 0-1.52-1.24 9.87 9.87 0 0 0-1.73-.92c-.6-.25-1.23-.44-1.87-.57a9.898 9.898 0 0 0-3.91 0c-.64.13-1.27.32-1.87.57-.6.25-1.18.56-1.72.92-.55.36-1.06.78-1.53 1.24-.46.46-.87.979-1.24 1.52-.36.54-.67 1.13-.92 1.73-.25.6-.44 1.229-.57 1.87-.13.649-.19 1.3-.19 1.96 0 .649.06 1.3.19 1.95.13.64.32 1.27.57 1.869.25.601.56 1.181.92 1.73.37.54.78 1.06 1.24 1.52.47.46.98.881 1.53 1.24.54.36 1.12.67 1.72.92.61.25 1.24.44 1.87.57.65.13 1.31.19 1.96.19a9.915 9.915 0 0 0 3.82-.76c.6-.25 1.19-.56 1.73-.92.55-.359 1.06-.78 1.52-1.24a10.09 10.09 0 0 0 2.93-7.069c0-.66-.07-1.311-.2-1.96zM310.627 79.786H102.794c-5.523 0-10 4.478-10 10s4.477 10 10 10h207.833c5.523 0 10-4.478 10-10s-4.477-10-10-10zM314.821 147.364H11.181c-5.523 0-10 4.478-10 10v197.199c0 5.523 4.477 10 10 10h303.64c5.523 0 10-4.478 10-10V157.364c0-5.522-4.477-10-10-10zM121.806 344.562H36.925l57.165-66.186 41.4 47.94-13.684 18.246zm25 0 18.646-24.861h48.489c5.523 0 10-4.478 10-10s-4.477-10-10-10h-33.488l7.016-9.354h62.789l40.665 54.215H146.806zm55.662-74.215 16.395-21.859 16.395 21.859h-32.79zm102.353 59.413-77.958-103.94a10.002 10.002 0 0 0-16 0l-63.09 84.119-46.114-53.4a10 10 0 0 0-15.136 0l-65.342 75.653V167.364h283.64V329.76z" fill="#ffffff" opacity="1" data-original="#000000" class=""></path><path d="M137.648 178.846c-19.494 0-35.353 15.859-35.353 35.353s15.86 35.353 35.353 35.353c19.494 0 35.353-15.859 35.353-35.353s-15.859-35.353-35.353-35.353zm0 50.707c-8.466 0-15.353-6.887-15.353-15.353s6.888-15.353 15.353-15.353 15.353 6.887 15.353 15.353-6.887 15.353-15.353 15.353zM502.002 147.364h-153.69c-5.523 0-10 4.478-10 10v197.199c0 5.522 4.477 10 10 10h153.69c5.523 0 10-4.478 10-10V157.364c0-5.522-4.477-10-10-10zm-10 197.199h-133.69V167.364h133.69v177.199z" fill="#ffffff" opacity="1" data-original="#000000" class=""></path><path d="M468.719 183.835h-87.124c-5.523 0-10 4.478-10 10s4.477 10 10 10h87.124c5.523 0 10-4.478 10-10s-4.477-10-10-10zM468.719 223.969h-87.124c-5.523 0-10 4.478-10 10s4.477 10 10 10h87.124c5.523 0 10-4.478 10-10s-4.477-10-10-10zM468.719 264.103h-87.124c-5.523 0-10 4.478-10 10s4.477 10 10 10h87.124c5.523 0 10-4.478 10-10s-4.477-10-10-10zM391.401 312.281c-.13-.641-.32-1.271-.57-1.87-.25-.601-.56-1.181-.92-1.73-.37-.54-.78-1.06-1.25-1.52-2.32-2.32-5.77-3.391-9.02-2.73a10.098 10.098 0 0 0-3.6 1.49c-.54.36-1.06.78-1.52 1.24a9.991 9.991 0 0 0-2.16 3.25c-.25.6-.44 1.229-.57 1.87-.13.649-.2 1.3-.2 1.949a10.085 10.085 0 0 0 .77 3.831 10.04 10.04 0 0 0 2.16 3.25c.46.46.98.88 1.52 1.24a10.098 10.098 0 0 0 5.56 1.69c2.63 0 5.2-1.07 7.06-2.931.46-.46.88-.979 1.25-1.52.36-.55.67-1.13.92-1.73.25-.6.44-1.229.57-1.87.13-.649.19-1.3.19-1.96 0-.649-.06-1.3-.19-1.949zM468.719 304.236h-49.214c-5.523 0-10 4.478-10 10s4.477 10 10 10h49.214c5.523 0 10-4.478 10-10s-4.477-10-10-10zM164.871 378.751H11.181c-5.523 0-10 4.478-10 10v103.002c0 5.522 4.477 10 10 10h153.69c5.523 0 10-4.478 10-10V388.751c0-5.522-4.477-10-10-10zm-10 103.002H21.181v-83.002h133.69v83.002zM502.002 378.751H199.728c-5.523 0-10 4.478-10 10v103.002c0 5.522 4.477 10 10 10h302.274c5.523 0 10-4.478 10-10V388.751c0-5.522-4.477-10-10-10zm-10 103.002H209.728v-83.002h282.274v83.002z" fill="#ffffff" opacity="1" data-original="#000000" class=""></path><path d="M255.281 438.302a10.122 10.122 0 0 0-1.49-3.599 9.533 9.533 0 0 0-1.24-1.521 9.57 9.57 0 0 0-1.52-1.24 9.937 9.937 0 0 0-1.73-.92c-.6-.25-1.23-.45-1.87-.58-1.29-.25-2.62-.25-3.91 0a10.217 10.217 0 0 0-3.59 1.5c-.55.36-1.06.78-1.52 1.24a9.86 9.86 0 0 0-2.17 3.25 9.84 9.84 0 0 0-.76 3.82c0 .649.06 1.31.19 1.95.13.639.32 1.269.57 1.879.25.6.56 1.18.92 1.72.37.55.79 1.06 1.25 1.52a10.077 10.077 0 0 0 7.07 2.931c.65 0 1.31-.061 1.95-.19.64-.13 1.27-.33 1.87-.58.61-.25 1.19-.55 1.73-.92a9.462 9.462 0 0 0 1.52-1.24c.46-.46.88-.97 1.24-1.52.36-.54.67-1.12.92-1.72.25-.61.44-1.24.57-1.88.13-.641.2-1.301.2-1.95 0-.65-.07-1.311-.2-1.95zM451.319 430.252h-167.93c-5.523 0-10 4.478-10 10s4.477 10 10 10h167.93c5.523 0 10-4.478 10-10s-4.477-10-10-10z" fill="#ffffff" opacity="1" data-original="#000000" class=""></path></g></svg>